<?xml version="1.0" encoding="UTF-8"?><svg xmlns="http://www.w3.org/2000/svg" viewBox="0 0 353.4 65.21"><defs><style>.d{fill:#130908;}</style></defs><g id="a"/><g id="b"><g id="c"><g><path class="d" d="M127.27,45.6V26.75c.09-1.88-.42-3.73-1.47-5.29-.99-1.34-2.29-2.41-3.79-3.12-1.62-.77-3.35-1.28-5.12-1.51-1.84-.25-3.69-.38-5.54-.39-2.01,0-4.02,.2-6,.6-1.89,.36-3.7,1.04-5.37,2-1.58,.92-2.92,2.19-3.93,3.71h0c-1.09,1.75-1.7,3.75-1.75,5.81h9.96c.02-1.62,.74-3.15,1.96-4.2,1.37-.91,2.99-1.35,4.63-1.26,.83,0,1.67,.06,2.49,.18,.72,.1,1.41,.34,2.03,.7,.59,.36,1.07,.86,1.4,1.47,.39,.79,.57,1.67,.53,2.56,.1,.89-.24,1.76-.91,2.35-.79,.6-1.7,1.02-2.67,1.23-1.27,.3-2.56,.52-3.86,.63-1.45,.14-2.92,.33-4.42,.56-1.5,.24-2.99,.55-4.46,.95-1.4,.37-2.73,.97-3.93,1.79-1.17,.83-2.14,1.92-2.81,3.19-.78,1.58-1.15,3.32-1.09,5.08-.04,1.66,.28,3.31,.95,4.84,.6,1.31,1.5,2.47,2.63,3.36,1.17,.91,2.5,1.58,3.93,1.96,1.58,.43,3.21,.64,4.84,.63,2.24,0,4.46-.33,6.6-.98,2.13-.64,4.07-1.83,5.61-3.43,.05,.6,.13,1.2,.25,1.79,.12,.58,.27,1.15,.46,1.72h10.1c-.56-1.04-.89-2.19-.98-3.36-.19-1.56-.28-3.13-.28-4.7Zm-9.97-5.96c-.01,.75-.07,1.5-.17,2.24-.13,.98-.45,1.92-.95,2.77-.58,.98-1.4,1.78-2.39,2.35-1.4,.73-2.98,1.07-4.56,.98-.78,0-1.55-.07-2.32-.21-.7-.12-1.36-.37-1.96-.74-.56-.35-1.02-.85-1.33-1.44-.35-.7-.51-1.47-.49-2.24-.03-.8,.14-1.59,.49-2.31,.32-.59,.76-1.11,1.3-1.51,.58-.42,1.22-.74,1.9-.95,.72-.23,1.46-.42,2.21-.56,.8-.14,1.59-.26,2.39-.35s1.55-.21,2.28-.35c.69-.13,1.37-.31,2.04-.52h0c.58-.18,1.12-.48,1.58-.88v3.71Z"/><path class="d" d="M273.2,15.32c-12.14,0-18.22,9.12-18.22,19.15s6.07,19.15,18.22,19.15,18.22-9.12,18.22-19.15-6.07-19.15-18.22-19.15Zm0,29.68c-6.68,0-8.63-5.74-8.63-10.53s1.95-10.53,8.63-10.53,8.63,5.74,8.63,10.53-1.95,10.53-8.63,10.53Z"/><path class="d" d="M233.4,23.93c3.66-.19,6.95,2.21,7.91,5.74h9.83c-1.65-7.97-7.56-14.36-17.73-14.36-12.15,0-18.22,9.12-18.22,19.15s6.07,19.15,18.22,19.15c10.17,0,16.08-6.39,17.73-14.36h-9.83c-.96,3.53-4.25,5.92-7.9,5.74-6.68,0-8.63-5.74-8.63-10.53s1.95-10.53,8.63-10.53Z"/><rect class="d" y=".02" width="9.59" height="8.78"/><rect class="d" y="14.8" width="9.59" height="38.8"/><path class="d" d="M40.35,20.24c-2.65-2.48-6.18-3.97-10.55-3.97-10.55,0-16.3,8.62-16.3,19.15s5.75,19.15,16.3,19.15c4.36,0,7.89-1.49,10.55-3.97v3h9.59V0h-9.59V20.24Zm-7.67,25.71c-2.88,0-7.67-1.92-7.67-10.53s4.79-10.53,7.67-10.53c5.75,0,7.67,5.01,7.67,10.53s-1.92,10.53-7.67,10.53Z"/><path class="d" d="M343.82,0V20.24c-2.65-2.47-6.18-3.97-10.55-3.97-10.55,0-16.3,8.62-16.3,19.15s5.75,19.15,16.3,19.15c4.36,0,7.89-1.49,10.55-3.96v3h9.59V0h-9.59Zm-7.67,45.95c-2.88,0-7.67-1.92-7.67-10.53s4.79-10.53,7.67-10.53c5.75,0,7.67,5.01,7.67,10.53s-1.92,10.53-7.67,10.53Z"/><path class="d" d="M72.03,16.27c-12.14,0-18.22,9.12-18.22,19.15s6.07,19.15,18.22,19.15c9.34,0,15.09-5.39,17.24-12.45h-10.2c-1.43,2.51-4.16,3.99-7.04,3.83-5.37,0-7.68-3.71-8.38-7.66h26.42c.11-.95,.17-1.91,.17-2.87,0-10.03-6.07-19.15-18.22-19.15Zm-8.38,16.27c.7-3.94,3.01-7.66,8.38-7.66s7.69,3.71,8.39,7.66h-16.77Z"/><path class="d" d="M193.58,16.27c-12.15,0-18.22,9.12-18.22,19.15s6.07,19.15,18.22,19.15c9.34,0,15.09-5.39,17.24-12.45h-10.2c-1.43,2.51-4.16,3.99-7.04,3.83-5.37,0-7.68-3.71-8.38-7.66h26.42c.11-.95,.17-1.91,.17-2.87,0-10.03-6.07-19.15-18.22-19.15Zm-8.38,16.27c.7-3.94,3.01-7.66,8.38-7.66s7.69,3.71,8.39,7.66h-16.77Z"/><path class="d" d="M162.34,20v-2.76h-9.59V53.61h9.59v-17.22h.02c-.01-.32-.02-.64-.02-.96,0-6.7,1.92-10.53,7.67-10.53,1.36,0,2.7,.4,3.84,1.15v-9.77c-4.86-.4-8.7,1.08-11.51,3.71Z"/><path class="d" d="M304.98,20v-2.76h-9.59V53.61h9.59v-2.97h0v-14.25h.02c-.01-.32-.02-.64-.02-.96,0-6.7,1.92-10.53,7.67-10.53,1.36,0,2.7,.4,3.84,1.15v-9.77c-4.86-.4-8.7,1.08-11.51,3.72Z"/><path class="d" d="M134.09,53.45h5.14c.05,.76-.05,1.52-.28,2.24-.23,.73-.6,1.4-1.07,2-.48,.59-1.04,1.11-1.68,1.53-.62,.42-1.31,.71-2.04,.86v5.13c1.5-.23,2.95-.67,4.32-1.32,1.31-.61,2.51-1.44,3.53-2.46,1.01-1.02,1.82-2.21,2.39-3.53,.61-1.41,.91-2.92,.89-4.46v-10.98h-11.21v10.97Z"/><rect class="d" x="134.09" y="17.24" width="11.21" height="10.98"/></g></g></g></svg>